# xmcd
#
# Track frame offsets: 
#        150
#        16730
#        45297
#        86440
#        116250
#        143490
#
# Disc length: 2172 seconds
#
# Revision: 1
# Processed by: cddbd v1.5.2PL0 Copyright (c) Steve Scherf et al.
# Submitted via: ExactAudioCopyFreeDBPlugin 1.0
#
DISCID=34087a06
DTITLE=Zona - Por Causa Do Amor (Bass Bumpers and Club 69 Remixes)
DYEAR=1996
DGENRE=Rhythmic Soul
TTITLE0=Por Causa Do Amor (Bass Bumpers Radio Edit)
TTITLE1=Por Causa Do Amor (Bass Bumpers Exteded Version)
TTITLE2=Por Causa Do Amor (Club 69 Tribal Mix)
TTITLE3=Por Causa Do Amor (Original Extended Dream Version)
TTITLE4=Por Causa Do Amor (House Club Mix)
TTITLE5=Por Causa Do Amor (Club 69 Tribal Dub)
EXTD=
EXTT0=
EXTT1=
EXTT2=
EXTT3=
EXTT4=
EXTT5=
PLAYORDER=
